<?xml version="1.0" encoding="utf-8"?>
<!-- Generator: Adobe Illustrator 16.2.0, SVG Export Plug-In . SVG Version: 6.00 Build 0)  -->
<!DOCTYPE svg PUBLIC "-//W3C//DTD SVG 1.1//EN" "http://www.w3.org/Graphics/SVG/1.1/DTD/svg11.dtd">
<svg version="1.1" id="Layer_1" xmlns="http://www.w3.org/2000/svg" xmlns:xlink="http://www.w3.org/1999/xlink" x="0px" y="0px"
	 width="400px" height="52.2px" viewBox="0 0 400 52.2" enable-background="new 0 0 400 52.2" xml:space="preserve">
<g>
	<g>
		<path fill="#626466" d="M270.2,13c-3.8-2.1-7.9-3.1-12.3-3.1c-6.5,0-9.7,1.2-9.7,3.6c0,1.4,1.2,2.3,3.6,2.8
			c3.3,0.3,6.6,0.6,9.9,0.9c4.8,0.5,8.1,1.4,10.2,2.7c2.2,1.4,3.4,3.6,3.4,6.5c0,3.3-1.4,5.8-4.2,7.6c-2.8,1.8-6.8,2.7-12.1,2.7
			c-7.5,0-13.4-1.8-17.9-5.4l3.1-4.2c4,2.9,8.9,4.4,14.8,4.4c3.3,0,5.8-0.4,7.6-1.3c1.8-0.9,2.7-2,2.7-3.5c0-1.6-1.1-2.8-3.3-3.4
			c-1.2-0.4-3.1-0.6-5.7-0.7c-4-0.2-6.5-0.3-7.4-0.4c-3.6-0.4-6.2-1.2-7.9-2.4c-1.7-1.3-2.6-3.1-2.6-5.5c0-2.9,1.4-5.2,4.1-6.9
			c2.7-1.7,6.6-2.5,11.5-2.5c6.6,0,11.9,1.5,15.9,4.5L270.2,13z"/>
		<path fill="#626466" d="M368.5,35.9h-5.2l-6.1-9h-11.6v9H341V11.3h18.9c2.5,0,4.5,0.7,5.9,2.1c1.5,1.4,2.2,3.3,2.2,5.7
			c0,4.1-1.9,6.6-5.8,7.5L368.5,35.9z M359.2,22.6c2.8,0,4.2-1.1,4.2-3.4c0-2.4-1.5-3.6-4.4-3.6h-13.4v6.9H359.2z"/>
		<polygon fill="#626466" points="303.5,15.7 292.3,15.7 292.3,36 287.7,36 287.7,15.7 276.5,15.7 276.5,11.4 303.5,11.4 		"/>
		<polygon fill="#626466" points="384.2,15.7 388.8,15.7 400,15.7 400,11.4 373,11.4 373,13 373,15.7 373,21.9 373,25.5 373,31.6 
			373,34.4 373,36 384.2,36 388.8,36 400,36 400,31.6 377.3,31.6 377.3,25.8 383.8,25.8 387.8,25.8 397.6,25.8 397.6,21.5 
			377.3,21.5 377.3,15.7 		"/>
		<path fill="#626466" d="M331.5,13.9c-2.9-2.2-6.4-3.3-10.4-3.3c-1.5,0-2.9,0.1-4.2,0.5c-3.7,0.8-6.2,2.9-6.2,2.9
			c-3.3,2.5-5,5.8-5,9.8c0,4,1.6,7.3,4.9,9.8c2.8,2.2,6.3,3.2,10.5,3.2c4.2,0,7.7-1.1,10.5-3.2c3.3-2.5,4.9-5.8,4.9-9.8
			C336.4,19.6,334.8,16.4,331.5,13.9z M328.8,29.9c-2,1.6-4.5,2.4-7.7,2.4c-3.2,0-5.8-0.8-7.8-2.4c-2-1.6-2.9-3.7-2.9-6.4
			c0-2.4,0.9-4.4,2.7-6c2.7-2.2,6.2-2.6,6.2-2.6c0.6-0.1,1.1-0.1,1.8-0.1c3.1,0,5.7,0.8,7.7,2.5c2,1.6,3,3.7,3,6.3
			C331.7,26.2,330.7,28.3,328.8,29.9z"/>
	</g>
	<g>
		<path fill="#00447C" d="M236,24.6h-20c0.4,2.4,1.4,4.2,3,5.3c1.5,1.1,3.2,1.7,5,1.7c2.8,0,5.2-1.2,7-3.5l3.6,2.7
			c-2.7,3.5-6.3,5.3-10.9,5.3c-3.5,0-6.4-1.2-8.7-3.6c-2.3-2.4-3.5-5.3-3.5-8.9c0-3.3,1.2-6.2,3.6-8.6c2.4-2.4,5.3-3.7,8.7-3.7
			c3.4,0,6.3,1.2,8.7,3.7C234.9,17.5,236.1,20.7,236,24.6z M216.6,20.7h14.3c-1.6-3.2-3.9-4.8-7-4.8C220.4,15.8,218,17.4,216.6,20.7
			z"/>
	</g>
	<g>
		<g>
			<g>
				<g>
					<rect x="94.3" y="30.1" fill="#00447C" width="108.6" height="22.2"/>
					<g>
						<path fill="#FFFFFF" d="M118.6,37.3V49h2.5c4,0,6.4-2.5,6.4-5.7c0-3.2-2.2-5.9-6.9-5.9H118.6z M121.2,46.6v-7
							c2.5-0.1,3.7,1.7,3.7,3.7C124.9,45.3,123.7,46.8,121.2,46.6z"/>
						<polygon fill="#FFFFFF" points="153.9,37.3 151.3,37.3 151.3,43.8 144.1,37.1 144.1,49 146.8,49 146.8,42.9 153.9,49.4 						
							"/>
						<polygon fill="#FFFFFF" points="155,39.6 158.2,39.6 158.2,49 161.1,49 161.1,39.6 164.2,39.6 164.2,37.3 155,37.3 						"/>
						<polygon fill="#FFFFFF" points="165.2,49 165.2,37.3 172.1,37.3 172.1,39.5 167.9,39.5 167.9,42 171.7,42 171.7,44.3 
							167.9,44.3 167.9,46.7 172.1,46.7 172.1,49 						"/>
						<polygon fill="#FFFFFF" points="190.3,37.3 190.3,42 185.8,42 185.8,37.3 183.2,37.3 183.2,49 185.8,49 185.8,44.3 
							190.3,44.3 190.3,49 193,49 193,37.3 						"/>
						<polygon fill="#FFFFFF" points="126.2,37.3 132.2,49.3 133.6,46.3 129.2,37.3 						"/>
						<polygon fill="#FFFFFF" points="138.1,36.9 136.6,40 137.8,43.1 135.1,43.1 134.2,45 138.6,45 140.3,49 143.3,49 						"/>
						<path fill="#FFFFFF" d="M172.7,43.2c0,3.8,2.9,5.9,6.4,5.9c1.4,0,2.2-0.4,2.8-0.7v-2.8c-0.5,0.7-1.6,1.2-2.7,1.2
							c-2.1,0-3.8-1.4-3.8-3.7c0-2.3,1.9-3.6,3.8-3.6c1.1,0,2.2,0.5,2.7,1.2v-2.6c-0.5-0.4-1.4-0.8-2.8-0.8
							C175.5,37.3,172.7,39.8,172.7,43.2z"/>
						<path fill="#FFFFFF" d="M109.5,44.4l1.7-4.1l1.7,4.1H109.5z M117.9,49l-6.7-14.5L104.5,49h3.3l1-2.4h4.8l0.9,2.4H117.9z"/>
					</g>
				</g>
			</g>
		</g>
		<path fill="#00447C" d="M15,7.6c1.5,0.8,2.3,2,2.3,3.7c0,2.7-1.9,4-5.6,4H0.1V0.4h11.7c1.5,0,2.7,0.4,3.6,1.1
			c0.9,0.8,1.3,1.8,1.3,3C16.7,5.8,16.1,6.8,15,7.6 M11.8,6.4c0.6,0,1.2-0.2,1.5-0.5C13.8,5.7,14,5.2,14,4.7c0-1.1-0.7-1.7-2-1.7
			H2.9v3.5H11.8z M11.7,12.7c0.9,0,1.6-0.2,2.1-0.5s0.7-0.7,0.7-1.3c0-1.3-0.8-1.9-2.5-1.9h-9v3.6H11.7z"/>
		<path fill="#00447C" d="M40.1,7.6c1.5,0.8,2.3,2,2.3,3.7c0,2.7-1.9,4-5.6,4H25.2V0.4h11.7c1.5,0,2.7,0.4,3.6,1.1
			c0.9,0.8,1.3,1.8,1.3,3C41.8,5.8,41.3,6.8,40.1,7.6 M37,6.4c0.6,0,1.2-0.2,1.5-0.5s0.6-0.7,0.6-1.3c0-1.1-0.7-1.7-2-1.7H28v3.5H37
			z M36.8,12.7c0.9,0,1.6-0.2,2.1-0.5c0.5-0.3,0.7-0.7,0.7-1.3c0-1.3-0.8-1.9-2.5-1.9h-9v3.6H36.8z"/>
		<polygon fill="#00447C" points="23.8,8.5 21.5,8.5 21.5,10.8 19.9,10.8 19.9,8.5 17.6,8.5 17.6,7 19.9,7 19.9,4.7 21.5,4.7 
			21.5,7 23.8,7 		"/>
		<g>
			<g>
				<path fill="#626466" d="M63,4.1c-1.8-1-3.9-1.5-6-1.5c-3.2,0-4.7,0.6-4.7,1.8c0,0.7,0.6,1.1,1.8,1.4c1.6,0.1,3.2,0.3,4.9,0.5
					c2.3,0.2,4,0.7,5,1.3c1.1,0.7,1.6,1.8,1.6,3.2c0,1.6-0.7,2.8-2,3.7c-1.4,0.9-3.3,1.3-5.9,1.3c-3.7,0-6.6-0.9-8.8-2.6l1.5-2.1
					c2,1.4,4.4,2.2,7.2,2.2c1.6,0,2.8-0.2,3.7-0.6c0.9-0.4,1.3-1,1.3-1.7c0-0.8-0.5-1.4-1.6-1.7c-0.6-0.2-1.5-0.3-2.8-0.4
					c-2-0.1-3.2-0.2-3.6-0.2c-1.8-0.2-3.1-0.6-3.9-1.2c-0.8-0.6-1.3-1.5-1.3-2.7c0-1.4,0.7-2.5,2-3.4C52.7,0.4,54.6,0,57,0
					c3.2,0,5.8,0.7,7.8,2.2L63,4.1z"/>
				<polygon fill="#626466" points="84.1,15.3 81.9,15.3 81.8,5.4 76.1,13.6 70.4,5.3 70.3,5.4 70.3,15.3 68.1,15.3 68.1,3.3 
					71.4,3.3 76.1,10.1 80.8,3.3 84.1,3.3 				"/>
				<path fill="#626466" d="M101.1,15.3h-2.5l-1.3-2.6h-7.7l-1.3,2.6h-2.5l6.2-12h2.8L101.1,15.3z M96.2,10.6l-2.7-5.3l-2.7,5.3
					H96.2z"/>
				<path fill="#626466" d="M116.8,15.3h-2.6l-3-4.4h-5.7v4.4h-2.2v-12h9.3c1.2,0,2.2,0.3,2.9,1c0.7,0.7,1.1,1.6,1.1,2.8
					c0,2-1,3.2-2.8,3.7L116.8,15.3z M112.3,8.8c1.4,0,2-0.5,2-1.6c0-1.2-0.7-1.7-2.2-1.7h-6.6v3.4H112.3z"/>
				<polygon fill="#626466" points="131.7,5.4 126.2,5.4 126.2,15.3 124,15.3 124,5.4 118.5,5.4 118.5,3.3 131.7,3.3 				"/>
				<polygon fill="#626466" points="155.7,0.4 150.9,15.3 147.6,15.3 144.2,2.8 140.8,15.3 137.4,15.3 132.6,0.4 135.7,0.4 
					139.1,12.8 142.5,0.4 145.8,0.4 149.2,12.8 152.6,0.4 				"/>
				<path fill="#626466" d="M186.9,15.3h-2.6l-3-4.4h-5.7v4.4h-2.2v-12h9.3c1.2,0,2.2,0.3,2.9,1c0.7,0.7,1.1,1.6,1.1,2.8
					c0,2-0.9,3.2-2.9,3.7L186.9,15.3z M182.4,8.8c1.4,0,2-0.5,2-1.6c0-1.2-0.7-1.7-2.2-1.7h-6.6v3.4H182.4z"/>
				<polygon fill="#626466" points="203.1,15.3 200.3,15.3 195.7,10.6 191.2,15.3 188.4,15.3 194.3,9.2 188.6,3.3 191.4,3.3 
					195.7,7.8 200.1,3.3 202.9,3.3 197.1,9.2 				"/>
			</g>
			<path fill="#626466" d="M168.6,4.5c-1.4-1.1-3.1-1.6-5.1-1.6c-0.7,0-1.4,0.1-2.1,0.2c-1.8,0.4-3,1.4-3,1.4
				c-1.6,1.2-2.4,2.8-2.4,4.8c0,2,0.8,3.6,2.4,4.8c1.4,1.1,3.1,1.6,5.1,1.6c2,0,3.8-0.5,5.1-1.6c1.6-1.2,2.4-2.8,2.4-4.8
				C171,7.3,170.2,5.7,168.6,4.5z M167.2,12.4c-1,0.8-2.2,1.2-3.8,1.2c-1.6,0-2.8-0.4-3.8-1.2c-1-0.8-1.4-1.8-1.4-3.1
				c0-1.2,0.5-2.2,1.3-2.9c1.3-1.1,3-1.3,3-1.3c0.3,0,0.6-0.1,0.9-0.1c1.5,0,2.8,0.4,3.7,1.2c1,0.8,1.5,1.8,1.5,3.1
				C168.7,10.5,168.2,11.6,167.2,12.4z"/>
		</g>
		<g>
			<rect y="21.7" fill="#626466" width="203" height="1.5"/>
		</g>
		<g>
			<path fill="#00447C" d="M25.3,37.4v-7.3h2.3c0.9,0,1.4,0,1.7,0.1c0.4,0.1,0.8,0.3,1,0.7c0.3,0.4,0.4,0.8,0.4,1.4
				c0,0.4-0.1,0.8-0.2,1.1c-0.2,0.3-0.4,0.5-0.6,0.7c-0.2,0.2-0.5,0.3-0.7,0.3c-0.3,0.1-0.8,0.1-1.5,0.1h-0.9v2.7H25.3z M26.7,31.3
				v2.1h0.8c0.6,0,0.9,0,1.1-0.1c0.2-0.1,0.3-0.2,0.5-0.4c0.1-0.2,0.2-0.4,0.2-0.6c0-0.3-0.1-0.5-0.2-0.7c-0.2-0.2-0.3-0.3-0.6-0.3
				c-0.2,0-0.5-0.1-1-0.1H26.7z"/>
			<path fill="#00447C" d="M32.1,34.6c0-0.5,0.1-0.9,0.3-1.3c0.2-0.4,0.5-0.8,1-1c0.4-0.2,0.9-0.3,1.4-0.3c0.8,0,1.4,0.3,1.9,0.8
				c0.5,0.5,0.7,1.2,0.7,2c0,0.8-0.3,1.5-0.8,2c-0.5,0.5-1.1,0.8-1.9,0.8c-0.5,0-0.9-0.1-1.4-0.3c-0.4-0.2-0.8-0.5-1-1
				C32.2,35.8,32.1,35.3,32.1,34.6z M33.5,34.7c0,0.5,0.1,0.9,0.4,1.2c0.2,0.3,0.5,0.4,0.9,0.4c0.4,0,0.7-0.1,0.9-0.4
				c0.2-0.3,0.4-0.7,0.4-1.2c0-0.5-0.1-0.9-0.4-1.2c-0.2-0.3-0.5-0.4-0.9-0.4c-0.4,0-0.7,0.1-0.9,0.4C33.6,33.8,33.5,34.2,33.5,34.7
				z"/>
			<path fill="#00447C" d="M39.9,37.4l-1.6-5.3h1.3l1,3.5l0.9-3.5h1.3l0.9,3.5l1-3.5h1.3l-1.7,5.3H43L42.1,34l-0.9,3.4H39.9z"/>
			<path fill="#00447C" d="M50.1,35.7l1.4,0.2c-0.2,0.5-0.5,0.9-0.8,1.2c-0.4,0.3-0.9,0.4-1.4,0.4c-0.9,0-1.6-0.3-2-0.9
				c-0.3-0.5-0.5-1.1-0.5-1.8c0-0.9,0.2-1.6,0.7-2.1c0.4-0.5,1-0.7,1.7-0.7c0.8,0,1.4,0.3,1.8,0.8c0.4,0.5,0.7,1.3,0.6,2.4h-3.4
				c0,0.4,0.1,0.7,0.3,1c0.2,0.2,0.5,0.3,0.8,0.3c0.2,0,0.4-0.1,0.5-0.2C49.9,36.1,50,35.9,50.1,35.7z M50.2,34.3
				c0-0.4-0.1-0.7-0.3-0.9c-0.2-0.2-0.4-0.3-0.7-0.3c-0.3,0-0.5,0.1-0.7,0.3c-0.2,0.2-0.3,0.5-0.3,0.9H50.2z"/>
			<path fill="#00447C" d="M54.4,37.4H53v-5.3h1.3v0.8c0.2-0.4,0.4-0.6,0.6-0.7c0.2-0.1,0.4-0.2,0.6-0.2c0.3,0,0.6,0.1,0.9,0.3
				L56,33.4c-0.2-0.2-0.4-0.2-0.6-0.2c-0.2,0-0.4,0.1-0.5,0.2c-0.1,0.1-0.2,0.3-0.3,0.6c-0.1,0.3-0.1,0.9-0.1,1.8V37.4z"/>
			<path fill="#00447C" d="M60.4,35.7l1.4,0.2c-0.2,0.5-0.5,0.9-0.8,1.2c-0.4,0.3-0.9,0.4-1.4,0.4c-0.9,0-1.6-0.3-2-0.9
				c-0.3-0.5-0.5-1.1-0.5-1.8c0-0.9,0.2-1.6,0.7-2.1s1-0.7,1.7-0.7c0.8,0,1.4,0.3,1.8,0.8c0.4,0.5,0.7,1.3,0.6,2.4h-3.4
				c0,0.4,0.1,0.7,0.3,1c0.2,0.2,0.5,0.3,0.8,0.3c0.2,0,0.4-0.1,0.5-0.2C60.2,36.1,60.3,35.9,60.4,35.7z M60.5,34.3
				c0-0.4-0.1-0.7-0.3-0.9C60,33.1,59.7,33,59.5,33c-0.3,0-0.5,0.1-0.7,0.3c-0.2,0.2-0.3,0.5-0.3,0.9H60.5z"/>
			<path fill="#00447C" d="M68.1,37.4h-1.3v-0.8c-0.2,0.3-0.5,0.5-0.7,0.7c-0.3,0.1-0.6,0.2-0.9,0.2c-0.6,0-1.1-0.2-1.5-0.7
				c-0.4-0.5-0.6-1.2-0.6-2c0-0.9,0.2-1.6,0.6-2c0.4-0.5,0.9-0.7,1.6-0.7c0.6,0,1.1,0.2,1.5,0.7v-2.6h1.4V37.4z M64.5,34.6
				c0,0.6,0.1,1,0.2,1.2c0.2,0.4,0.5,0.5,0.9,0.5c0.3,0,0.6-0.1,0.8-0.4c0.2-0.3,0.3-0.7,0.3-1.2c0-0.6-0.1-1-0.3-1.3
				C66.2,33.2,66,33,65.6,33c-0.3,0-0.6,0.1-0.8,0.4C64.6,33.7,64.5,34.1,64.5,34.6z"/>
			<path fill="#00447C" d="M73.1,37.4v-7.3h1.4v2.6c0.4-0.5,0.9-0.7,1.5-0.7c0.6,0,1.2,0.2,1.6,0.7c0.4,0.5,0.6,1.1,0.6,2
				c0,0.9-0.2,1.6-0.6,2.1c-0.4,0.5-0.9,0.7-1.5,0.7c-0.3,0-0.6-0.1-0.9-0.2c-0.3-0.2-0.5-0.4-0.7-0.7v0.8H73.1z M74.4,34.6
				c0,0.5,0.1,1,0.3,1.2c0.2,0.4,0.6,0.6,0.9,0.6c0.3,0,0.6-0.1,0.8-0.4c0.2-0.3,0.3-0.7,0.3-1.2c0-0.6-0.1-1-0.3-1.3
				c-0.2-0.3-0.5-0.4-0.8-0.4c-0.3,0-0.6,0.1-0.8,0.4C74.5,33.7,74.4,34.1,74.4,34.6z"/>
			<path fill="#00447C" d="M79,32.1h1.5l1.2,3.7l1.2-3.7h1.4l-1.8,5.1l-0.3,0.9c-0.1,0.3-0.2,0.5-0.3,0.7c-0.1,0.2-0.2,0.3-0.4,0.4
				c-0.1,0.1-0.3,0.2-0.5,0.2c-0.2,0.1-0.4,0.1-0.7,0.1c-0.3,0-0.5,0-0.8-0.1l-0.1-1.1c0.2,0,0.4,0.1,0.6,0.1c0.3,0,0.6-0.1,0.7-0.3
				c0.2-0.2,0.3-0.4,0.4-0.7L79,32.1z"/>
		</g>
	</g>
</g>
</svg>
